<svg width="465" height="62" viewBox="0 0 465 62" fill="none" xmlns="http://www.w3.org/2000/svg">
<path fill-rule="evenodd" clip-rule="evenodd" d="M208.235 28.6668C229.219 24.2583 229.514 21.3335 238.038 22.3477C259.797 24.9367 259.832 25.2672 334.051 23.2009C343.592 22.9352 447.088 20.0539 453.326 20.3568C467.688 21.0541 470.052 44.0704 453.32 46.1024C450.01 46.5043 302.44 42.8639 289.321 42.5402C253.32 41.6521 253.395 43.6933 228.476 44.5786C186.85 46.0574 98.4468 65.3493 59.0672 60.1943C28.0237 56.1306 7.34571 34.7221 0.853163 15.2766C-2.41251 5.49572 4.47284 0.565232 8.43264 0.109873C27.5723 -2.09105 35.7808 29.408 65.7248 37.7281C87.2347 43.7048 179.334 33.4714 208.235 28.6668Z" fill="#1D4025"/>
</svg>
